<?xml version="1.0" standalone="no"?>
<!DOCTYPE svg PUBLIC "-//W3C//DTD SVG 20010904//EN"
 "http://www.w3.org/TR/2001/REC-SVG-20010904/DTD/svg10.dtd">
<svg version="1.0" xmlns="http://www.w3.org/2000/svg"
 width="1024.000000pt" height="1024.000000pt" viewBox="0 0 1024.000000 1024.000000"
 preserveAspectRatio="xMidYMid meet">

<g transform="translate(0.000000,1024.000000) scale(0.100000,-0.100000)"
fill="#d3d3d3" stroke="none">
<path d="M9667 9662 l-567 -567 0 -3978 0 -3977 -3978 0 -3977 0 -570 -570
-570 -570 5118 0 5117 0 0 5115 c0 2813 -1 5115 -3 5115 -1 0 -257 -255 -570
-568z"/>
<path d="M4010 7494 c-756 -482 -1381 -879 -1388 -883 -8 -5 389 -263 1108
-721 l1120 -713 0 -944 0 -943 -500 0 -500 0 -2 -327 -3 -328 -563 -3 -562 -2
2 -473 3 -472 2395 0 2395 0 3 472 2 473 -562 2 -563 3 -3 328 -2 327 -500 0
-500 0 -2 2540 -3 2539 -1375 -875z"/>
</g>
</svg>
